# xmcd
#
# Track frame offsets:
#	150
#	12008
#	44153
#	76728
#	95668
#	118543
#	128988
#	159025
#	176793
#	185858
#	212508
#	225288
#	239063
#
# Disc length: 3560 seconds
#
# Revision: 0
# Processed by: cddbd v1.5.1PL0 Copyright (c) Steve Scherf et al.
# Submitted via: audiograbber 1.83.01
#
DISCID=a70de60d
DTITLE=Mustafa Kandirali - Ile Neseli Günler
DYEAR=1900
DGENRE=
TTITLE0=Misket
TTITLE1=Sen Ciftetelli
TTITLE2=Romen Oyun Havasi
TTITLE3=Kandira Ciftetellisi
TTITLE4=Arap Saz Semaisi
TTITLE5=Zeybek
TTITLE6=Hulya Ciftetellisi
TTITLE7=Aheste Oyun Havasi
TTITLE8=Bursa Romen Oyun Havasi
TTITLE9=Cigan Muzigi
TTITLE10=Bessame Muco
TTITLE11=Konya Kasik Havasi
TTITLE12=Kurdili Hicazkar Sirto
EXTD=
EXTT0=
EXTT1=
EXTT2=
EXTT3=
EXTT4=
EXTT5=
EXTT6=
EXTT7=
EXTT8=
EXTT9=
EXTT10=
EXTT11=
EXTT12=
PLAYORDER=
